HIERARCHY
ROOT Hips
{
	OFFSET 0.000000 0.000000 0.000000
	CHANNELS 6 Xposition Yposition Zposition Zrotation Yrotation Xrotation 
	JOINT LHipJoint
	{
		OFFSET 0.000000 0.000000 0.000000
		CHANNELS 3 Zrotation Yrotation Xrotation
		JOINT LeftUpLeg
		{
			OFFSET 1.363060 -1.794630 0.839290
			CHANNELS 3 Zrotation Yrotation Xrotation
			JOINT LeftLeg
			{
				OFFSET 2.448110 -6.726130 0.000000
				CHANNELS 3 Zrotation Yrotation Xrotation
				JOINT LeftFoot
				{
					OFFSET 2.562200 -7.039590 0.000000
					CHANNELS 3 Zrotation Yrotation Xrotation
					JOINT LeftToeBase
					{
						OFFSET 0.157640 -0.433110 2.322550
						CHANNELS 3 Zrotation Yrotation Xrotation
						End Site
						{
							OFFSET 0.000000 0.000000 0.000000
						}
					}
				}
			}
		}
	}
	JOINT RHipJoint
	{
		OFFSET 0.000000 0.000000 0.000000
		CHANNELS 3 Zrotation Yrotation Xrotation
		JOINT RightUpLeg
		{
			OFFSET -1.305520 -1.794630 0.839290
			CHANNELS 3 Zrotation Yrotation Xrotation
			JOINT RightLeg
			{
				OFFSET -2.542530 -6.985550 0.000000
				CHANNELS 3 Zrotation Yrotation Xrotation
				JOINT RightFoot
				{
					OFFSET -2.568260 -7.056230 0.000000
					CHANNELS 3 Zrotation Yrotation Xrotation
					JOINT RightToeBase
					{
						OFFSET -0.164730 -0.452590 2.363150
						CHANNELS 3 Zrotation Yrotation Xrotation
						End Site
						{
							OFFSET 0.000000 0.000000 0.000000
						}
					}
				}
			}
		}
	}
	JOINT LowerBack
	{
		OFFSET 0.000000 0.000000 0.000000
		CHANNELS 3 Zrotation Yrotation Xrotation
		JOINT Spine
		{
			OFFSET 0.028270 2.035590 -0.193380
			CHANNELS 3 Zrotation Yrotation Xrotation
			JOINT Spine1
			{
				OFFSET 0.056720 2.048850 -0.042750
				CHANNELS 3 Zrotation Yrotation Xrotation
				JOINT Neck
				{
					OFFSET 0.000000 0.000000 0.000000
					CHANNELS 3 Zrotation Yrotation Xrotation
					JOINT Neck1
					{
						OFFSET -0.054170 1.746240 0.172020
						CHANNELS 3 Zrotation Yrotation Xrotation
						JOINT Head
						{
							OFFSET 0.104070 1.761360 -0.123970
							CHANNELS 3 Zrotation Yrotation Xrotation
							End Site
							{
								OFFSET 0.000000 0.000000 0.000000
							}
						}
					}
				}
				JOINT LeftShoulder
				{
					OFFSET 0.000000 0.000000 0.000000
					CHANNELS 3 Zrotation Yrotation Xrotation
					JOINT LeftArm
					{
						OFFSET 3.362410 1.200890 -0.311210
						CHANNELS 3 Zrotation Yrotation Xrotation
						JOINT LeftForeArm
						{
							OFFSET 4.983000 -0.000000 -0.000000
							CHANNELS 3 Zrotation Yrotation Xrotation
							JOINT LeftHand
							{
								OFFSET 3.483560 -0.000000 -0.000000
								CHANNELS 3 Zrotation Yrotation Xrotation
								JOINT LeftFingerBase
								{
									OFFSET 0.000000 0.000000 0.000000
									CHANNELS 3 Zrotation Yrotation Xrotation
									JOINT LeftHandIndex1
									{
										OFFSET 0.715260 -0.000000 -0.000000
										CHANNELS 3 Zrotation Yrotation Xrotation
										End Site
										{
											OFFSET 0.000000 0.000000 0.000000
										}
									}
								}
								JOINT LThumb
								{
									OFFSET 0.000000 0.000000 0.000000
									CHANNELS 3 Zrotation Yrotation Xrotation
									End Site
									{
										OFFSET 0.000000 0.000000 0.000000
									}
								}
							}
						}
					}
				}
				JOINT RightShoulder
				{
					OFFSET 0.000000 0.000000 0.000000
					CHANNELS 3 Zrotation Yrotation Xrotation
					JOINT RightArm
					{
						OFFSET -3.136600 1.374050 -0.404650
						CHANNELS 3 Zrotation Yrotation Xrotation
						JOINT RightForeArm
						{
							OFFSET -5.241900 -0.000000 -0.000000
							CHANNELS 3 Zrotation Yrotation Xrotation
							JOINT RightHand
							{
								OFFSET -3.444170 -0.000000 -0.000000
								CHANNELS 3 Zrotation Yrotation Xrotation
								JOINT RightFingerBase
								{
									OFFSET 0.000000 0.000000 0.000000
									CHANNELS 3 Zrotation Yrotation Xrotation
									JOINT RightHandIndex1
									{
										OFFSET -0.622530 -0.000000 -0.000000
										CHANNELS 3 Zrotation Yrotation Xrotation
										End Site
										{
											OFFSET 0.000000 0.000000 0.000000
										}
									}
								}
								JOINT RThumb
								{
									OFFSET 0.000000 0.000000 0.000000
									CHANNELS 3 Zrotation Yrotation Xrotation
									End Site
									{
										OFFSET 0.000000 0.000000 0.000000
									}
								}
							}
						}
					}
				}
			}
		}
	}
}
MOTION
Frames: 5
Frame Time: 0.008333
-14.530078 15.184953 0.699701 55.515535 -45.110034 78.538764 -2.051807 -4.405193 -3.899908 3.297548 -0.267732 -61.984379 8.649103 16.551626 53.683914 -3.334308 11.415389 -4.186330 3.885800 -12.006900 -35.756300 1.335913 3.606137 -2.300108 -15.925285 20.402240 -13.850447 -4.680145 -12.890169 39.496696 -2.188192 3.464159 2.328870 -0.074100 1.756500 -4.833200 3.269672 -8.727616 15.914406 5.512202 -10.213196 0.005227 8.622943 -5.209498 1.097400 -8.565580 -2.027927 -21.585677 -7.974879 -1.205903 -13.464178 -2.577000 -0.430000 -3.505000 -3.728006 -11.547337 6.612439 43.407832 -37.870295 -48.916192 13.905267 -31.123491 -4.753731 -4.537902 -0.977676 -41.871327 75.847989 -31.426045 -70.918800 -7.125000 0.000000 0.000000 26.757500 -38.880000 -39.537500 7.917995 12.504496 1.745203 -34.705414 31.847878 -37.563840 -14.082051 31.331335 -5.686438 0.798771 8.944792 -36.366834 -67.772452 -44.379901 68.283700 7.125000 0.000000 0.000000 -144.618100 72.954200 -155.741500 
-14.596447 15.179404 0.624954 60.453595 -44.520449 74.214600 -2.113587 -4.478828 -3.809693 1.711524 -0.277193 -59.299586 7.845146 16.206069 51.191098 -3.396748 11.539007 -3.754524 3.811500 -11.905200 -35.397600 1.212730 3.633427 -2.488503 -17.766658 20.974565 -15.093396 -6.040081 -14.101439 44.501129 -1.950803 3.049026 0.980931 -0.036600 1.234900 -3.395500 2.374282 -8.959722 15.848198 5.879958 -10.613451 -0.221302 9.562003 -5.393694 1.072193 -9.494892 -2.035931 -21.527686 -8.216221 -1.011744 -13.007106 -2.568000 -0.297000 -3.360000 -3.708803 -11.537936 6.867570 44.475617 -38.333130 -46.718397 13.979488 -31.033472 -4.346439 -4.346126 -1.436451 -43.585443 69.120716 -28.462064 -57.422100 -7.125000 0.000000 0.000000 23.496300 -27.862200 -33.610500 7.973103 12.533179 1.532194 -33.855609 30.797562 -37.493062 -13.691436 30.670015 -5.535363 1.125107 9.130438 -34.680376 -67.570760 -44.121343 68.180000 7.125000 0.000000 0.000000 -143.934100 73.014300 -155.196100 
-14.657267 15.165695 0.538131 65.310369 -43.655520 70.015037 -2.202883 -4.554267 -3.714522 -0.068604 0.005090 -56.894639 7.053033 15.796952 48.696284 -3.474330 11.689683 -3.345048 3.798200 -11.886900 -35.333100 1.134207 3.646056 -2.647458 -19.756728 21.761759 -16.319342 -7.521859 -15.224650 49.675997 -1.804160 2.887501 -0.276405 -0.011300 0.686300 -1.886000 1.377257 -9.164549 15.828354 6.224078 -10.991911 -0.453354 10.476120 -5.561507 1.023928 -10.406595 -2.035038 -21.409512 -8.454095 -0.819975 -12.588876 -2.570000 -0.169000 -3.244000 -3.696269 -11.521798 7.091546 45.482543 -38.648602 -44.682987 14.358545 -31.261638 -4.143558 -3.925679 -1.977263 -45.076841 60.814938 -24.195110 -40.758000 -7.125000 0.000000 0.000000 20.250600 -13.698100 -25.913800 8.035233 12.557877 1.327762 -32.959635 29.529735 -37.169838 -13.393647 30.057570 -5.438375 1.424751 9.358943 -33.234842 -67.388273 -43.931754 68.158900 7.125000 0.000000 0.000000 -143.519700 73.025400 -154.883000 
-14.706880 15.144152 0.440645 69.926936 -42.444163 66.096545 -2.316496 -4.626888 -3.625105 -1.877629 0.568417 -54.807264 6.310351 15.343326 46.296693 -3.591052 11.919743 -2.911092 3.831700 -11.933000 -35.495300 1.106637 3.651719 -2.772818 -21.804135 22.906086 -17.497536 -9.081842 -16.246936 54.926070 -1.708910 2.837976 -1.473611 -0.001200 0.221300 -0.608000 0.499878 -9.360635 15.737601 6.528840 -11.353045 -0.666800 11.181599 -5.715649 1.006622 -11.092786 -2.044278 -21.178823 -8.781209 -0.720708 -12.290143 -2.661000 -0.100000 -3.200000 -3.694956 -11.490651 7.290218 46.470375 -38.905952 -43.560291 14.798954 -31.683460 -4.120953 -3.288802 -2.447932 -45.556249 51.676765 -19.420668 -25.193800 -7.125000 0.000000 0.000000 16.749300 0.104200 -17.483400 8.106839 12.583176 1.139575 -31.998766 28.078676 -36.672663 -13.166551 29.475532 -5.390107 1.710128 9.634953 -31.967711 -67.242775 -43.811273 68.246400 7.125000 0.000000 0.000000 -143.389600 72.974300 -154.825500 
-14.743981 15.116843 0.336087 74.276644 -40.800072 62.509189 -2.449498 -4.696389 -3.544864 -3.572605 1.280593 -53.045545 5.639233 14.877482 44.068514 -3.692754 12.119677 -2.396369 3.853400 -11.962700 -35.600300 1.122698 3.649937 -2.858148 -23.782885 24.373855 -18.558280 -10.679677 -17.154737 60.157978 -1.631055 2.776458 -2.634636 -0.000300 -0.114300 0.314100 -0.113233 -9.593500 15.552437 6.822786 -11.730891 -0.872052 11.678078 -5.874423 0.995030 -11.630447 -2.059832 -20.815699 -9.192054 -0.706410 -12.106785 -2.820000 -0.075000 -3.230000 -3.704965 -11.461580 7.443044 47.321027 -39.121183 -43.660284 15.112661 -32.173460 -4.259410 -2.537559 -2.702370 -44.569471 41.906891 -15.566418 -14.366600 -7.125000 0.000000 0.000000 11.854400 10.007900 -9.832400 8.191014 12.604309 0.985011 -31.026783 26.499066 -36.056087 -12.988070 28.912105 -5.374689 1.993735 9.948653 -30.805617 -67.118572 -43.735624 68.409200 7.125000 0.000000 0.000000 -143.458900 72.880100 -154.947300 
